<mxfile host="Electron" agent="Mozilla/5.0 (Macintosh; Intel Mac OS X 10_15_7) AppleWebKit/537.36 (KHTML, like Gecko) draw.io/28.2.5 Chrome/138.0.7204.251 Electron/37.6.1 Safari/537.36" version="28.2.5">
  <diagram name="Page-1" id="Wk80vHXXjsZfZgkBTLC1">
    <mxGraphModel dx="1163" dy="705" grid="1" gridSize="10" guides="1" tooltips="1" connect="1" arrows="1" fold="1" page="1" pageScale="1" pageWidth="850" pageHeight="1100" math="0" shadow="0">
      <root>
        <mxCell id="0" />
        <mxCell id="1" parent="0" />
        <object label="" id="sMP0XvqOST07dHMZkyEX-3">
          <mxCell style="verticalLabelPosition=bottom;verticalAlign=top;html=1;shape=mxgraph.basic.rect;fillColor2=none;strokeWidth=1;size=20;indent=5;fillOpacity=100;fillColor=#1ba1e2;fontColor=#ffffff;strokeColor=#006EAF;" parent="1" vertex="1">
            <mxGeometry x="846.5" y="597.5" width="160" height="375" as="geometry" />
          </mxCell>
        </object>
        <object label="" id="sMP0XvqOST07dHMZkyEX-4">
          <mxCell style="verticalLabelPosition=bottom;verticalAlign=top;html=1;shape=mxgraph.basic.rect;fillColor2=none;strokeWidth=1;size=20;indent=5;fillOpacity=100;fillColor=#1ba1e2;fontColor=#ffffff;strokeColor=#006EAF;" parent="1" vertex="1">
            <mxGeometry x="656.5" y="597.5" width="160" height="375" as="geometry" />
          </mxCell>
        </object>
        <object label="" id="sMP0XvqOST07dHMZkyEX-5">
          <mxCell style="verticalLabelPosition=bottom;verticalAlign=top;html=1;shape=mxgraph.basic.rect;fillColor2=none;strokeWidth=1;size=20;indent=5;fillOpacity=100;fillColor=#1ba1e2;fontColor=#ffffff;strokeColor=#006EAF;" parent="1" vertex="1">
            <mxGeometry x="465" y="597.5" width="160" height="375" as="geometry" />
          </mxCell>
        </object>
        <object label="" id="sMP0XvqOST07dHMZkyEX-6">
          <mxCell style="verticalLabelPosition=bottom;verticalAlign=top;html=1;shape=mxgraph.basic.rect;fillColor2=none;strokeWidth=1;size=20;indent=5;fillColor=#1ba1e2;strokeColor=#006EAF;" parent="1" vertex="1">
            <mxGeometry x="847" y="182.5" width="160" height="375" as="geometry" />
          </mxCell>
        </object>
        <mxCell id="sMP0XvqOST07dHMZkyEX-7" value="&lt;h3 style=&quot;margin-top: 0px;&quot;&gt;&lt;p style=&quot;font-size: 12px; font-weight: 400;&quot;&gt;&lt;/p&gt;&lt;ul&gt;&lt;li&gt;&lt;span style=&quot;font-size: 12px; font-weight: 400;&quot;&gt;Enable a workflow cache, where the customer is able to use the business services on the front-end in the event of an outage of the back-end systems.&lt;/span&gt;&lt;/li&gt;&lt;li&gt;&lt;span style=&quot;font-size: 12px; font-weight: 400;&quot;&gt;Enable a resume feature for the customers to be able to resume an abandoned service on the front-end.&lt;/span&gt;&lt;/li&gt;&lt;/ul&gt;&lt;p&gt;&lt;/p&gt;&lt;/h3&gt;" style="text;html=1;whiteSpace=wrap;overflow=hidden;rounded=0;spacing=2;spacingLeft=-25;" parent="1" vertex="1">
          <mxGeometry x="853.5" y="197.5" width="153" height="350" as="geometry" />
        </mxCell>
        <object label="" id="sMP0XvqOST07dHMZkyEX-8">
          <mxCell style="verticalLabelPosition=bottom;verticalAlign=top;html=1;shape=mxgraph.basic.rect;fillColor2=none;strokeWidth=1;size=20;indent=5;fillColor=#1ba1e2;strokeColor=#006EAF;fontColor=#ffffff;" parent="1" vertex="1">
            <mxGeometry x="465" y="182.5" width="160" height="375" as="geometry" />
          </mxCell>
        </object>
        <mxCell id="sMP0XvqOST07dHMZkyEX-9" value="" style="endArrow=none;dashed=1;html=1;rounded=0;strokeWidth=2;" parent="1" edge="1">
          <mxGeometry width="50" height="50" relative="1" as="geometry">
            <mxPoint x="825" y="977.5" as="sourcePoint" />
            <mxPoint x="830" y="167.5" as="targetPoint" />
          </mxGeometry>
        </mxCell>
        <mxCell id="sMP0XvqOST07dHMZkyEX-10" value="&lt;h3 style=&quot;margin-top: 0px;&quot;&gt;&lt;span style=&quot;font-size: 14px;&quot;&gt;Design and implement a read through cache&lt;/span&gt;&lt;/h3&gt;" style="text;html=1;whiteSpace=wrap;overflow=hidden;rounded=0;" parent="1" vertex="1">
          <mxGeometry x="463" y="113.75" width="160" height="50" as="geometry" />
        </mxCell>
        <mxCell id="sMP0XvqOST07dHMZkyEX-11" value="&lt;font&gt;&lt;b&gt;Deliverables&lt;/b&gt;&lt;/font&gt;" style="text;html=1;align=center;verticalAlign=middle;whiteSpace=wrap;rounded=0;rotation=-90;fontSize=20;" parent="1" vertex="1">
          <mxGeometry x="405" y="327.5" width="60" height="30" as="geometry" />
        </mxCell>
        <mxCell id="sMP0XvqOST07dHMZkyEX-12" value="&lt;h3 style=&quot;margin-top: 0px;&quot;&gt;&lt;ul&gt;&lt;li&gt;&lt;span style=&quot;font-size: 12px; font-weight: 400;&quot;&gt;Faster retrieval of customer data on the second retrieval and onwards.&lt;/span&gt;&lt;/li&gt;&lt;li&gt;&lt;span style=&quot;font-size: 12px; font-weight: 400;&quot;&gt;High availability of the services that rely on the cached customer data.&lt;/span&gt;&lt;/li&gt;&lt;/ul&gt;&lt;/h3&gt;" style="text;html=1;whiteSpace=wrap;overflow=hidden;rounded=0;spacingLeft=-25;" parent="1" vertex="1">
          <mxGeometry x="465" y="607.5" width="160" height="232.5" as="geometry" />
        </mxCell>
        <mxCell id="sMP0XvqOST07dHMZkyEX-13" value="&lt;font&gt;&lt;b&gt;Value capture&lt;/b&gt;&lt;/font&gt;" style="text;html=1;align=center;verticalAlign=middle;whiteSpace=wrap;rounded=0;rotation=-90;fontSize=20;" parent="1" vertex="1">
          <mxGeometry x="382.5" y="757.5" width="105" height="30" as="geometry" />
        </mxCell>
        <object label="" id="sMP0XvqOST07dHMZkyEX-16">
          <mxCell style="verticalLabelPosition=bottom;verticalAlign=top;html=1;shape=mxgraph.basic.rect;fillColor2=none;strokeWidth=1;size=20;indent=5;fillColor=#1ba1e2;fontColor=#ffffff;strokeColor=#006EAF;" parent="1" vertex="1">
            <mxGeometry x="656.5" y="181.5" width="160" height="376" as="geometry" />
          </mxCell>
        </object>
        <mxCell id="sMP0XvqOST07dHMZkyEX-17" value="&lt;h3 style=&quot;margin-top: 0px;&quot;&gt;&lt;span style=&quot;font-size: 14px;&quot;&gt;Integrate front-end cache with the worfklow engine implementation&lt;/span&gt;&lt;/h3&gt;" style="text;html=1;whiteSpace=wrap;overflow=hidden;rounded=0;" parent="1" vertex="1">
          <mxGeometry x="850" y="112.5" width="160" height="57.5" as="geometry" />
        </mxCell>
        <mxCell id="sMP0XvqOST07dHMZkyEX-20" value="&lt;h3 style=&quot;margin-top: 0px;&quot;&gt;&lt;font style=&quot;font-size: 14px;&quot;&gt;Design and implement an extended front-end cache&lt;/font&gt;&lt;/h3&gt;" style="text;html=1;whiteSpace=wrap;overflow=hidden;rounded=0;" parent="1" vertex="1">
          <mxGeometry x="654.5" y="112.5" width="164" height="60" as="geometry" />
        </mxCell>
        <mxCell id="sMP0XvqOST07dHMZkyEX-22" value="&lt;h3 style=&quot;margin-top: 0px;&quot;&gt;&lt;p style=&quot;font-size: 12px; font-weight: 400;&quot;&gt;&lt;/p&gt;&lt;ul&gt;&lt;li&gt;&lt;span style=&quot;font-size: 12px; font-weight: 400;&quot;&gt;Define the target data model for front-end data cache.&lt;/span&gt;&lt;/li&gt;&lt;li&gt;&lt;span style=&quot;font-size: 12px; font-weight: 400;&quot;&gt;Define and capture the events from the back-end systems that are able to publish the needed entities in the cache data model.&lt;/span&gt;&lt;/li&gt;&lt;li&gt;&lt;span style=&quot;font-size: 12px; font-weight: 400;&quot;&gt;Define cache and refresh strategy.&lt;/span&gt;&lt;/li&gt;&lt;li&gt;&lt;font style=&quot;font-size: 12px; font-weight: normal;&quot;&gt;Implement the storage behind the front-end.&lt;/font&gt;&lt;/li&gt;&lt;/ul&gt;&lt;p&gt;&lt;/p&gt;&lt;/h3&gt;" style="text;html=1;whiteSpace=wrap;overflow=hidden;rounded=0;spacingLeft=-25;" parent="1" vertex="1">
          <mxGeometry x="465" y="197.5" width="158" height="350" as="geometry" />
        </mxCell>
        <mxCell id="sMP0XvqOST07dHMZkyEX-23" value="" style="endArrow=none;dashed=1;html=1;rounded=0;strokeWidth=2;" parent="1" edge="1">
          <mxGeometry width="50" height="50" relative="1" as="geometry">
            <mxPoint x="1015" y="977.5" as="sourcePoint" />
            <mxPoint x="1015" y="172.5" as="targetPoint" />
          </mxGeometry>
        </mxCell>
        <mxCell id="sMP0XvqOST07dHMZkyEX-24" value="" style="endArrow=none;dashed=1;html=1;rounded=0;strokeWidth=2;" parent="1" edge="1">
          <mxGeometry width="50" height="50" relative="1" as="geometry">
            <mxPoint x="635" y="977.5" as="sourcePoint" />
            <mxPoint x="635" y="172.5" as="targetPoint" />
          </mxGeometry>
        </mxCell>
        <mxCell id="sMP0XvqOST07dHMZkyEX-26" value="&lt;h3 style=&quot;margin-top: 0px;&quot;&gt;&lt;p style=&quot;font-size: 12px; font-weight: 400;&quot;&gt;&lt;/p&gt;&lt;ul&gt;&lt;li&gt;&lt;span style=&quot;font-size: 12px; font-weight: 400;&quot;&gt;Define an extended data model for front-end cache to cover maximum number of services and data driven features on the front-end.&lt;/span&gt;&lt;/li&gt;&lt;li&gt;&lt;span style=&quot;font-size: 12px; font-weight: 400;&quot;&gt;Extend the event driven update mechanism to cover the entire domain of cached data.&lt;/span&gt;&lt;/li&gt;&lt;/ul&gt;&lt;p&gt;&lt;/p&gt;&lt;/h3&gt;" style="text;html=1;whiteSpace=wrap;overflow=hidden;rounded=0;spacing=2;spacingLeft=-25;" parent="1" vertex="1">
          <mxGeometry x="656.5" y="193.5" width="160" height="354" as="geometry" />
        </mxCell>
        <mxCell id="sMP0XvqOST07dHMZkyEX-27" value="&lt;h3 style=&quot;margin-top: 0px;&quot;&gt;&lt;p style=&quot;font-size: 12px; font-weight: 400;&quot;&gt;&lt;/p&gt;&lt;ul&gt;&lt;li&gt;&lt;span style=&quot;font-size: 12px; font-weight: 400;&quot;&gt;Better coverage of the cached data and increase in high availability of the front-end services.&lt;/span&gt;&lt;/li&gt;&lt;/ul&gt;&lt;p&gt;&lt;/p&gt;&lt;/h3&gt;" style="text;html=1;whiteSpace=wrap;overflow=hidden;rounded=0;spacing=2;spacingLeft=-25;" parent="1" vertex="1">
          <mxGeometry x="654.5" y="607.5" width="160.5" height="210" as="geometry" />
        </mxCell>
        <mxCell id="sMP0XvqOST07dHMZkyEX-29" value="&lt;h3 style=&quot;margin-top: 0px;&quot;&gt;&lt;p style=&quot;font-size: 12px; font-weight: 400;&quot;&gt;&lt;/p&gt;&lt;ul&gt;&lt;li&gt;&lt;span style=&quot;font-size: 12px; font-weight: 400;&quot;&gt;Better isolation and less dependency of the front-end services on the back-end.&lt;/span&gt;&lt;/li&gt;&lt;/ul&gt;&lt;p&gt;&lt;/p&gt;&lt;/h3&gt;" style="text;html=1;whiteSpace=wrap;overflow=hidden;rounded=0;spacing=2;spacingLeft=-25;" parent="1" vertex="1">
          <mxGeometry x="846.5" y="607.5" width="153" height="330" as="geometry" />
        </mxCell>
        <mxCell id="sMP0XvqOST07dHMZkyEX-40" value="" style="shape=flexArrow;endArrow=classic;html=1;rounded=0;" parent="1" edge="1">
          <mxGeometry width="50" height="50" relative="1" as="geometry">
            <mxPoint x="465" y="1010" as="sourcePoint" />
            <mxPoint x="1026.5" y="1010" as="targetPoint" />
          </mxGeometry>
        </mxCell>
        <mxCell id="sMP0XvqOST07dHMZkyEX-41" value="Investment in capabilities" style="edgeLabel;html=1;align=center;verticalAlign=middle;resizable=0;points=[];fontSize=15;fontStyle=1" parent="sMP0XvqOST07dHMZkyEX-40" vertex="1" connectable="0">
          <mxGeometry x="-0.0753" y="-4" relative="1" as="geometry">
            <mxPoint x="-168" y="-14" as="offset" />
          </mxGeometry>
        </mxCell>
        <mxCell id="eTP5Dq8WHPHHXXOlQivT-1" value="" style="shape=flexArrow;endArrow=classic;html=1;rounded=0;" edge="1" parent="1">
          <mxGeometry width="50" height="50" relative="1" as="geometry">
            <mxPoint x="463" y="1050" as="sourcePoint" />
            <mxPoint x="1025.5" y="1050" as="targetPoint" />
          </mxGeometry>
        </mxCell>
        <mxCell id="eTP5Dq8WHPHHXXOlQivT-2" value="Higher availability" style="edgeLabel;html=1;align=center;verticalAlign=middle;resizable=0;points=[];fontSize=15;fontStyle=1" vertex="1" connectable="0" parent="eTP5Dq8WHPHHXXOlQivT-1">
          <mxGeometry x="-0.0753" y="-4" relative="1" as="geometry">
            <mxPoint x="-184" y="-14" as="offset" />
          </mxGeometry>
        </mxCell>
        <mxCell id="eTP5Dq8WHPHHXXOlQivT-3" value="" style="shape=flexArrow;endArrow=classic;html=1;rounded=0;" edge="1" parent="1">
          <mxGeometry width="50" height="50" relative="1" as="geometry">
            <mxPoint x="463" y="1090" as="sourcePoint" />
            <mxPoint x="1025.5" y="1090" as="targetPoint" />
          </mxGeometry>
        </mxCell>
        <mxCell id="eTP5Dq8WHPHHXXOlQivT-4" value="Better&amp;nbsp;performance" style="edgeLabel;html=1;align=center;verticalAlign=middle;resizable=0;points=[];fontSize=15;fontStyle=1" vertex="1" connectable="0" parent="eTP5Dq8WHPHHXXOlQivT-3">
          <mxGeometry x="-0.0753" y="-4" relative="1" as="geometry">
            <mxPoint x="-184" y="-14" as="offset" />
          </mxGeometry>
        </mxCell>
      </root>
    </mxGraphModel>
  </diagram>
</mxfile>
